<svg width="65" height="65" viewBox="0 0 65 65" fill="none" xmlns="http://www.w3.org/2000/svg">
<path d="M27.8334 32.1829H37.8334" stroke="#23262F" stroke-width="1.5" stroke-linecap="round" stroke-linejoin="round"/>
<path d="M31.8666 36.1991L27.8332 32.1831L31.8666 28.1665" stroke="#23262F" stroke-width="1.5" stroke-linecap="round" stroke-linejoin="round"/>
<path d="M33 59C18.0883 59 6 46.9117 6 32H2C2 49.1208 15.8792 63 33 63V59ZM60 32C60 46.9117 47.9117 59 33 59V63C50.1208 63 64 49.1208 64 32H60ZM33 5C47.9117 5 60 17.0883 60 32H64C64 14.8792 50.1208 1 33 1V5ZM33 1C15.8792 1 2 14.8792 2 32H6C6 17.0883 18.0883 5 33 5V1Z" fill="#23262F" fill-opacity="0.1"/>
</svg>
