<svg width="20" height="20" viewBox="0 0 20 20" fill="none" xmlns="http://www.w3.org/2000/svg">
<g clip-path="url(#clip0_1220_19561)">
<path d="M0 10C0 4.47715 4.47715 0 10 0V0C15.5228 0 20 4.47715 20 10V10C20 15.5228 15.5228 20 10 20V20C4.47715 20 0 15.5228 0 10V10Z" fill="#1A47B8"/>
<path fill-rule="evenodd" clip-rule="evenodd" d="M-2.66667 13.3333H25.3333V20H-2.66667V13.3333Z" fill="#F93939"/>
<path fill-rule="evenodd" clip-rule="evenodd" d="M-2.66667 0H25.3333V6.66667H-2.66667V0Z" fill="white"/>
</g>
<path d="M10 18.6667C5.21353 18.6667 1.33333 14.7865 1.33333 10H-1.33333C-1.33333 16.2592 3.74077 21.3333 10 21.3333V18.6667ZM18.6667 10C18.6667 14.7865 14.7865 18.6667 10 18.6667V21.3333C16.2592 21.3333 21.3333 16.2592 21.3333 10H18.6667ZM10 1.33333C14.7865 1.33333 18.6667 5.21353 18.6667 10H21.3333C21.3333 3.74077 16.2592 -1.33333 10 -1.33333V1.33333ZM10 -1.33333C3.74077 -1.33333 -1.33333 3.74077 -1.33333 10H1.33333C1.33333 5.21353 5.21353 1.33333 10 1.33333V-1.33333Z" fill="#23262F" fill-opacity="0.1"/>
<defs>
<clipPath id="clip0_1220_19561">
<path d="M0 10C0 4.47715 4.47715 0 10 0V0C15.5228 0 20 4.47715 20 10V10C20 15.5228 15.5228 20 10 20V20C4.47715 20 0 15.5228 0 10V10Z" fill="white"/>
</clipPath>
</defs>
</svg>
