<svg width="33" height="32" viewBox="0 0 33 32" fill="none" xmlns="http://www.w3.org/2000/svg">
<path opacity="0.4" d="M21.7675 2.66663H26.2821C28.1518 2.66663 29.6669 4.19443 29.6669 6.07992V10.6327C29.6669 12.5182 28.1518 14.046 26.2821 14.046H21.7675C19.8978 14.046 18.3828 12.5182 18.3828 10.6327V6.07992C18.3828 4.19443 19.8978 2.66663 21.7675 2.66663" fill="#58BD7D"/>
<path fill-rule="evenodd" clip-rule="evenodd" d="M6.38471 2.66663H10.8993C12.769 2.66663 14.284 4.19443 14.284 6.07992V10.6327C14.284 12.5182 12.769 14.046 10.8993 14.046H6.38471C4.51501 14.046 3 12.5182 3 10.6327V6.07992C3 4.19443 4.51501 2.66663 6.38471 2.66663ZM6.38471 17.954H10.8993C12.769 17.954 14.284 19.4818 14.284 21.3673V25.92C14.284 27.8043 12.769 29.3333 10.8993 29.3333H6.38471C4.51501 29.3333 3 27.8043 3 25.92V21.3673C3 19.4818 4.51501 17.954 6.38471 17.954ZM26.282 17.954H21.7674C19.8977 17.954 18.3827 19.4818 18.3827 21.3673V25.92C18.3827 27.8043 19.8977 29.3333 21.7674 29.3333H26.282C28.1517 29.3333 29.6667 27.8043 29.6667 25.92V21.3673C29.6667 19.4818 28.1517 17.954 26.282 17.954Z" fill="#58BD7D"/>
</svg>
