<svg width="33" height="32" viewBox="0 0 33 32" fill="none" xmlns="http://www.w3.org/2000/svg">
<path fill-rule="evenodd" clip-rule="evenodd" d="M12.0428 3.91566C14.956 2.22299 18.5367 2.25258 21.4225 3.99315C24.28 5.76918 26.0166 8.93887 26.0005 12.3486C25.934 15.7359 24.0717 18.92 21.744 21.3814C20.4005 22.8085 18.8975 24.0704 17.2658 25.1414C17.0977 25.2386 16.9137 25.3036 16.7226 25.3333C16.5388 25.3255 16.3598 25.2712 16.2017 25.1753C13.7106 23.5661 11.5251 21.512 9.75043 19.1119C8.26544 17.1085 7.42177 14.688 7.33399 12.1792C7.33206 8.76296 9.12968 5.60832 12.0428 3.91566ZM13.7262 13.593C14.2162 14.8011 15.3729 15.5891 16.6561 15.5891C17.4968 15.5951 18.3049 15.2584 18.9004 14.6539C19.4959 14.0495 19.8293 13.2275 19.8263 12.3712C19.8308 11.064 19.0613 9.88306 17.877 9.37967C16.6928 8.87628 15.3274 9.14977 14.4184 10.0724C13.5095 10.9951 13.2362 12.3849 13.7262 13.593Z" fill="#9757D7"/>
<ellipse opacity="0.4" cx="16.6677" cy="28" rx="6.66668" ry="1.33334" fill="#9757D7"/>
</svg>
