<svg width="14" height="15" viewBox="0 0 14 15" fill="none" xmlns="http://www.w3.org/2000/svg">
<path d="M10.4524 8.85337C10.3013 8.99979 10.2319 9.21154 10.2663 9.41921L10.7849 12.2892C10.8286 12.5325 10.7259 12.7786 10.5224 12.9192C10.3229 13.065 10.0574 13.0825 9.83986 12.9659L7.25628 11.6184C7.16645 11.5705 7.0667 11.5449 6.96461 11.542H6.80653C6.7517 11.5501 6.69803 11.5676 6.64903 11.5945L4.06486 12.9484C3.93711 13.0125 3.79245 13.0353 3.6507 13.0125C3.30536 12.9472 3.07495 12.6182 3.13153 12.2711L3.6507 9.40112C3.68511 9.19171 3.6157 8.97879 3.46461 8.83004L1.3582 6.78837C1.18203 6.61746 1.12078 6.36079 1.20128 6.12921C1.27945 5.89821 1.47895 5.72962 1.71986 5.69171L4.61903 5.27112C4.83953 5.24837 5.0332 5.11421 5.13236 4.91587L6.40986 2.29671C6.4402 2.23837 6.47928 2.18471 6.52653 2.13921L6.57903 2.09837C6.60645 2.06804 6.63795 2.04296 6.67295 2.02254L6.73653 1.99921L6.8357 1.95837H7.08128C7.30061 1.98112 7.4937 2.11237 7.59461 2.30837L8.88903 4.91587C8.98236 5.10662 9.16378 5.23904 9.3732 5.27112L12.2724 5.69171C12.5174 5.72671 12.7221 5.89587 12.8032 6.12921C12.8796 6.36312 12.8137 6.61979 12.634 6.78837L10.4524 8.85337Z" fill="#F6BF4D"/>
</svg>
