<svg width="65" height="65" viewBox="0 0 65 65" fill="none" xmlns="http://www.w3.org/2000/svg">
<path d="M38.1666 31.8171L28.1666 31.8171" stroke="#23262F" stroke-width="1.5" stroke-linecap="round" stroke-linejoin="round"/>
<path d="M34.1334 27.8009L38.1668 31.8169L34.1334 35.8335" stroke="#23262F" stroke-width="1.5" stroke-linecap="round" stroke-linejoin="round"/>
<path d="M33 5C47.9117 5 60 17.0883 60 32L64 32C64 14.8792 50.1208 0.999999 33 0.999997L33 5ZM6 32C6 17.0883 18.0883 5 33 5L33 0.999997C15.8792 0.999996 2 14.8792 2 32L6 32ZM33 59C18.0883 59 6 46.9117 6 32L2 32C2 49.1208 15.8792 63 33 63L33 59ZM33 63C50.1208 63 64 49.1208 64 32L60 32C60 46.9117 47.9117 59 33 59L33 63Z" fill="#23262F" fill-opacity="0.1"/>
</svg>
