<svg width="20" height="20" viewBox="0 0 20 20" fill="none" xmlns="http://www.w3.org/2000/svg">
<path opacity="0.4" d="M9.99972 18.3318C9.35889 18.3318 8.71888 18.0885 8.22972 17.6026L7.62138 16.9943C7.38555 16.7593 7.06972 16.6293 6.73472 16.6285H5.87888C4.49555 16.6285 3.36971 15.5026 3.36971 14.1193V13.2626C3.36888 12.9285 3.23888 12.6126 3.00304 12.3751L2.40471 11.7776C1.42471 10.8035 1.42054 9.21097 2.39554 8.23013L3.00388 7.62097C3.23888 7.38513 3.36888 7.0693 3.36971 6.7343V5.8793C3.36971 4.49513 4.49555 3.36929 5.87888 3.36929H6.73555C7.06972 3.36929 7.38472 3.23929 7.62222 3.00179L8.22138 2.40429C9.19555 1.42429 10.7872 1.41929 11.7689 2.39512L12.3772 3.00346C12.6139 3.23929 12.9289 3.36929 13.2631 3.36929H14.1197C15.5031 3.36929 16.6289 4.49513 16.6289 5.8793V6.73513C16.6297 7.0693 16.7597 7.38513 16.9956 7.62263L17.5939 8.22097C18.0681 8.69263 18.3306 9.32097 18.3331 9.9918C18.3347 10.6585 18.0781 11.286 17.6106 11.7601C17.6022 11.7685 17.5947 11.7776 17.5864 11.7851L16.9947 12.3768C16.7597 12.6126 16.6297 12.9285 16.6289 13.2635V14.1193C16.6289 15.5026 15.5031 16.6285 14.1197 16.6285H13.2631C12.9289 16.6293 12.6131 16.7593 12.3764 16.9951L11.7772 17.5935C11.2889 18.0851 10.6439 18.3318 9.99972 18.3318Z" fill="#315DF7"/>
<path fill-rule="evenodd" clip-rule="evenodd" d="M8.36945 8.37569C8.23195 8.51319 8.05362 8.58736 7.85612 8.58736C7.67112 8.58736 7.48945 8.51153 7.34362 8.37486C7.20529 8.23736 7.12695 8.04903 7.12695 7.85819C7.12695 7.67652 7.20362 7.48986 7.33862 7.34569C7.41279 7.27069 7.50112 7.21402 7.58945 7.18402C7.84112 7.06902 8.17529 7.13652 8.37362 7.34486C8.44445 7.41569 8.49862 7.49319 8.53445 7.57402C8.57362 7.66069 8.59362 7.75903 8.59362 7.85819C8.59362 8.05653 8.51445 8.24069 8.36945 8.37569ZM12.6591 7.34146C12.375 7.05812 11.9125 7.05812 11.6283 7.34146L7.34497 11.6248C7.0608 11.909 7.0608 12.3715 7.34497 12.6565C7.4833 12.794 7.6658 12.8698 7.8608 12.8698C8.0558 12.8698 8.2383 12.794 8.3758 12.6565L12.6591 8.37312C12.9433 8.08812 12.9433 7.62646 12.6591 7.34146ZM12.4219 11.4699C12.1519 11.3565 11.8319 11.4182 11.6186 11.6315C11.5744 11.6832 11.5119 11.7632 11.4694 11.8574C11.4244 11.959 11.4186 12.0682 11.4186 12.1415C11.4186 12.2149 11.4244 12.3232 11.4694 12.4249C11.5111 12.5182 11.5611 12.594 11.6269 12.6599C11.7777 12.7999 11.9527 12.8707 12.1477 12.8707C12.3327 12.8707 12.5144 12.7957 12.6636 12.6565C12.7961 12.524 12.8686 12.3407 12.8686 12.1415C12.8686 11.9415 12.7961 11.759 12.6627 11.6257C12.5894 11.5532 12.5011 11.4965 12.4219 11.4699Z" fill="#315DF7"/>
</svg>
