<svg width="32" height="32" viewBox="0 0 32 32" fill="none" xmlns="http://www.w3.org/2000/svg">
<path d="M15.9325 19.3866C11.3325 19.3866 7.45117 20.1383 7.45117 23.0393C7.45117 25.9415 11.3575 26.6667 15.9325 26.6667C20.5325 26.6667 24.4138 25.9151 24.4138 23.0141C24.4138 20.1118 20.5074 19.3866 15.9325 19.3866" fill="#315DF7"/>
<path opacity="0.4" d="M15.9317 16.6228C19.0466 16.6228 21.5442 14.1108 21.5442 10.9781C21.5442 7.84413 19.0466 5.33337 15.9317 5.33337C12.8169 5.33337 10.3193 7.84413 10.3193 10.9781C10.3193 14.1108 12.8169 16.6228 15.9317 16.6228" fill="#315DF7"/>
<path opacity="0.4" d="M28.1171 12.2923C28.923 9.12236 26.5603 6.27539 23.5517 6.27539C23.2246 6.27539 22.9118 6.31141 22.6062 6.37265C22.5656 6.38226 22.5202 6.40267 22.4964 6.43869C22.4689 6.48432 22.4892 6.54556 22.519 6.58518C23.4228 7.86038 23.9421 9.41294 23.9421 11.0796C23.9421 12.6766 23.4658 14.1655 22.6301 15.4011C22.5441 15.5283 22.6205 15.7 22.7721 15.7265C22.9823 15.7637 23.1972 15.7829 23.4168 15.7889C25.6076 15.8465 27.5739 14.4285 28.1171 12.2923" fill="#315DF7"/>
<path d="M30.4136 19.756C30.0124 18.8963 29.0442 18.3067 27.5721 18.0173C26.8773 17.8468 24.9969 17.6067 23.2479 17.6391C23.2216 17.6427 23.2073 17.6607 23.2049 17.6727C23.2013 17.6895 23.2085 17.7183 23.2431 17.7363C24.0514 18.1386 27.1758 19.8881 26.783 23.578C26.7663 23.7377 26.894 23.8758 27.0528 23.8517C27.8216 23.7413 29.7999 23.3138 30.4136 21.9822C30.7526 21.2785 30.7526 20.4608 30.4136 19.756" fill="#315DF7"/>
<path opacity="0.4" d="M9.39411 6.37302C9.08967 6.31058 8.77568 6.27576 8.44856 6.27576C5.43999 6.27576 3.07732 9.12273 3.88437 12.2927C4.42639 14.4288 6.39271 15.8469 8.58347 15.7893C8.80314 15.7833 9.01923 15.7629 9.22816 15.7268C9.37978 15.7004 9.45619 15.5287 9.37023 15.4014C8.53452 14.1647 8.05816 12.6769 8.05816 11.0799C8.05816 9.41211 8.57869 7.85954 9.48246 6.58555C9.51111 6.54592 9.5326 6.48469 9.50395 6.43906C9.48007 6.40184 9.43589 6.38262 9.39411 6.37302" fill="#315DF7"/>
<path d="M4.4294 18.0171C2.95736 18.3064 1.99032 18.896 1.58918 19.7557C1.24892 20.4606 1.24892 21.2783 1.58918 21.9831C2.20283 23.3135 4.18108 23.7422 4.94993 23.8515C5.10872 23.8755 5.23527 23.7386 5.21856 23.5777C4.82577 19.889 7.95014 18.1395 8.75959 17.7373C8.79302 17.7181 8.80018 17.6905 8.7966 17.6724C8.79421 17.6604 8.78108 17.6424 8.75481 17.64C7.00459 17.6064 5.12543 17.8466 4.4294 18.0171" fill="#315DF7"/>
</svg>
