<svg width="20" height="20" viewBox="0 0 20 20" fill="none" xmlns="http://www.w3.org/2000/svg">
<path opacity="0.4" d="M10.8136 2.59469L12.669 6.32325C12.8057 6.59338 13.0666 6.78098 13.3675 6.82267L17.535 7.42964C17.7784 7.46383 17.9993 7.59222 18.1485 7.78816C18.296 7.98159 18.3593 8.22671 18.3235 8.46767C18.2943 8.66777 18.2001 8.85286 18.056 8.9946L15.0361 11.9219C14.8153 12.1262 14.7152 12.4288 14.7686 12.7248L15.5121 16.8402C15.5913 17.3372 15.262 17.8057 14.7686 17.9C14.5652 17.9325 14.3568 17.8983 14.1735 17.8049L10.456 15.8681C10.1801 15.7289 9.8542 15.7289 9.57831 15.8681L5.86085 17.8049C5.40408 18.0475 4.83813 17.8824 4.58391 17.4322C4.48972 17.253 4.45638 17.0487 4.48722 16.8494L5.23071 12.7332C5.28406 12.438 5.1832 12.1337 4.96316 11.9294L1.94334 9.00377C1.5841 8.65693 1.57327 8.08581 1.91917 7.72646C1.92667 7.71895 1.93501 7.71062 1.94334 7.70228C2.08671 7.55637 2.27508 7.46383 2.47846 7.43965L6.64602 6.83184C6.94608 6.78932 7.20697 6.60339 7.3445 6.33158L9.13321 2.59469C9.29241 2.27453 9.62248 2.07526 9.98089 2.0836H10.0926C10.4035 2.12111 10.6744 2.31371 10.8136 2.59469" fill="#9757D7"/>
<path d="M9.99333 15.7643C9.83191 15.7693 9.67466 15.8126 9.53321 15.8902L5.83393 17.8226C5.38129 18.0386 4.83963 17.871 4.58586 17.4381C4.49183 17.2613 4.45772 17.0587 4.48934 16.8602L5.2282 12.7526C5.27812 12.454 5.17827 12.1505 4.96111 11.9403L1.93994 9.0154C1.58133 8.66428 1.57468 8.08797 1.9258 7.72851C1.93079 7.72351 1.93495 7.71934 1.93994 7.71517C2.08306 7.57339 2.26777 7.47998 2.46663 7.45079L6.63768 6.83695C6.93972 6.79858 7.20181 6.6101 7.33494 6.33654L9.14797 2.55261C9.32021 2.24736 9.65053 2.06554 9.99999 2.08473C9.99333 2.33243 9.99333 15.5958 9.99333 15.7643" fill="#9757D7"/>
</svg>
